<?xml version="1.0" encoding="UTF-8"?>
<!DOCTYPE svg PUBLIC "-//W3C//DTD SVG 1.1//EN" "http://www.w3.org/Graphics/SVG/1.1/DTD/svg11.dtd">
<!-- Creator: CorelDRAW (Evaluation Version) -->
<svg xmlns="http://www.w3.org/2000/svg" xml:space="preserve" width="210mm" height="297mm" version="1.1" style="shape-rendering:geometricPrecision; text-rendering:geometricPrecision; image-rendering:optimizeQuality; fill-rule:evenodd; clip-rule:evenodd"
viewBox="0 0 21000 29700"
 xmlns:xlink="http://www.w3.org/1999/xlink"
 xmlns:xodm="http://www.corel.com/coreldraw/odm/2003">
 <defs>
  <style type="text/css">
   <![CDATA[
    .fil1 {fill:#E0AD38;fill-rule:nonzero}
    .fil3 {fill:#014D44;fill-rule:nonzero}
    .fil5 {fill:#4E5A62;fill-rule:nonzero}
    .fil7 {fill:#57A695;fill-rule:nonzero}
    .fil2 {fill:#699392;fill-rule:nonzero}
    .fil0 {fill:#E6E7E8;fill-rule:nonzero}
    .fil6 {fill:#F8AC92;fill-rule:nonzero}
    .fil4 {fill:#FFB6B6;fill-rule:nonzero}
   ]]>
  </style>
 </defs>
 <g id="Layer_x0020_1">
  <metadata id="CorelCorpID_0Corel-Layer"/>
  <path class="fil0" d="M10230.17 2417.74l-3160.14 0c-60.89,0 -110.43,-49.54 -110.43,-110.43 0,-60.89 49.54,-110.43 110.43,-110.43l3160.14 -0.01c60.89,0 110.43,49.54 110.43,110.43 0,60.89 -49.54,110.43 -110.43,110.43l0 0.01z"/>
  <path class="fil0" d="M10145.72 6893.18c-60.89,0 -110.43,-49.54 -110.43,-110.43 0,-60.89 49.54,-110.43 110.43,-110.43l3160.13 -0.01c60.89,0 110.43,49.54 110.43,110.43 0,60.89 -49.54,110.43 -110.43,110.43l-3160.13 0.01z"/>
  <path class="fil0" d="M10136.24 7633.18c-55.66,0 -100.95,-49.54 -100.95,-110.43 0,-60.89 45.29,-110.43 100.95,-110.43l2888.82 -0.01c55.66,0 100.95,49.54 100.95,110.43 0,60.89 -45.29,110.43 -100.95,110.43l-2888.82 0.01z"/>
  <path class="fil0" d="M10145.72 7273.18c-60.89,0 -110.43,-49.54 -110.43,-110.43 0,-60.89 49.54,-110.43 110.43,-110.43l3160.13 -0.01c60.89,0 110.43,49.54 110.43,110.43 0,60.89 -49.54,110.43 -110.43,110.43l-3160.13 0.01z"/>
  <path class="fil1" d="M13317.46 7275.2l-2077.4 0c-88.11,0 -159.79,-51.03 -159.79,-113.75 0,-62.72 71.69,-113.75 159.79,-113.75l2077.4 -0.02c88.11,0 159.79,51.04 159.79,113.76 0,62.72 -71.69,113.75 -159.79,113.75l0 0.01z"/>
  <path class="fil0" d="M8844.98 2413.96l-1774.95 0c-60.89,0 -110.43,-49.54 -110.43,-110.43 0,-60.89 49.54,-110.43 110.43,-110.43l1774.95 -0.01c60.89,0 110.43,49.54 110.43,110.43 0,60.89 -49.54,110.43 -110.43,110.43l0 0.01z"/>
  <path class="fil0" d="M10230.17 2787.74l-3160.14 0c-60.89,0 -110.43,-49.54 -110.43,-110.43 0,-60.89 49.54,-110.43 110.43,-110.43l3160.14 -0.01c60.89,0 110.43,49.54 110.43,110.43 0,60.89 -49.54,110.43 -110.43,110.43l0 0.01z"/>
  <path class="fil0" d="M10230.17 3158.16l-3160.14 0c-60.89,0 -110.43,-49.54 -110.43,-110.43 0,-60.89 49.54,-110.43 110.43,-110.43l3160.14 -0.01c60.89,0 110.43,49.54 110.43,110.43 0,60.89 -49.54,110.43 -110.43,110.43l0 0.01z"/>
  <path class="fil1" d="M10564.91 5080.42l0 -52.92c-610.8,0 -1144.18,-498.95 -1285.99,-1193.95l230.14 59.21c-111.31,-105.46 -223.76,-282.01 -293.52,-426.3 -41.2,154.9 -118.16,349.56 -207.47,474.2l217.75 -103.15c144.79,723.07 701.1,1242.91 1339.09,1242.91z"/>
  <path class="fil1" d="M10024.4 3046.73c0,60.34 -89.37,109.43 -199.19,109.43l-2589.56 0c-109.85,0 -199.19,-49.1 -199.19,-109.43 0,-60.34 89.37,-109.43 199.19,-109.43l2589.56 0c109.85,0 199.19,49.09 199.19,109.43z"/>
  <g id="_2324613253968">
   <path class="fil2" d="M4138.68 8950.71c-20.94,-72.93 -56.81,-135.14 -99.51,-179.51l-155.14 -707.23 -338.17 82.84 193.79 708.49c-12.74,59.94 -10.19,131.51 10.75,204.44 47.85,166.61 173.56,277.27 280.78,247.16 107.22,-30.11 155.35,-189.58 107.51,-356.19l-0.01 0z"/>
   <path class="fil2" d="M4091.9 4311.48c0,0 -365.26,-12.61 -576.92,225.52 -242.51,296.24 -408.28,1456.98 -283.84,1535.15l337.15 2394.09 480.77 -66.06 -123.39 -2872.55 166.22 -1216.14 0 0 0.01 -0.01z"/>
  </g>
  <polygon class="fil3" points="6557.68,8347 6470.17,11268.99 5213.4,11268.99 5162.6,10142.65 4939.29,11268.99 3592.3,11268.99 3760.31,9332.76 3933.88,8925.57 4051.35,8649.61 "/>
  <path class="fil2" d="M5559.48 3834.19l-873.13 -52.92 -291.04 370.42c-251.36,53.82 -478.4,123.3 -635,238.13 37.47,1109.29 -44.84,2551.68 291.04,2831.04l-298.25 2105.1c0,0 120.28,-103.05 321.2,-66.67 69.41,12.57 153.2,168.93 238.49,178.41 655.36,72.8 1718.13,-2.07 2244.89,-1090.7l-204.45 -1575.93 52.92 -2301.88c-165.43,-130.76 -371.1,-215.75 -608.54,-264.58l-238.12 -370.42 0 0 -0.01 0z"/>
  <path class="fil4" d="M7240.38 3190.23c9.47,91.73 -2.56,177.99 -30.26,247.16l145.44 868.15 -415.12 57.12 -102.84 -886.8c-41.25,-62.04 -70.66,-144.03 -80.13,-235.76 -21.64,-209.56 68.92,-390.6 202.27,-404.37 133.35,-13.77 259,144.94 280.64,354.5l0 0 0 0z"/>
  <path class="fil2" d="M5860.24 4535.52c-43.46,64.13 -31.36,136.21 -41.73,222.82 -44.05,367.68 660.52,1454.15 1148.03,1579.24 63.97,16.42 100.42,85.42 164.99,99.3l0 0.01c191.28,41.11 369.38,-110.71 359.05,-306.09l-132.43 -2505.82 -556.34 189.76 35.61 1300.97c-3.55,-269.52 -251.03,-543.94 -438.48,-658.09 0,0 -379.7,-156.69 -538.7,77.9z"/>
  <circle class="fil4" cx="5213.52" cy="2943.72" r="769.08"/>
  <path class="fil5" d="M5929.89 2378.99c-6.61,1.59 101.24,-103.54 105.83,-105.83 105.83,-52.92 -2.91,464.34 -79.38,449.79 -188.12,-35.72 -269.35,-106.63 -342.37,70.38 -20.37,49.21 -33.07,104.78 -72.76,139.97 -54.5,47.89 -144.99,43.92 -189.44,101.07 -35.72,46.04 -25.4,113.77 1.06,165.63 26.46,52.12 66.68,96.31 90.75,149.49 26.99,59.8 -88.11,250.03 -132.03,356.92l0 0.26 -0.26 0.63c-11.67,28.04 -39.4,-52.73 -68.68,-60.79 -35.04,-9.65 -86.65,73.08 -142.46,58.05 -0.26,0 -0.53,-0.26 -0.79,-0.26 -53.18,-14.82 -112.45,-30.69 -171.18,-46.57l-0.26 -0.01c-165.36,-44.98 -207.17,19.58 -215.11,17.73l-102.66 -107.42c-35.23,-25.65 -31.25,-108.46 -56.09,-130.7 -20.32,-18.19 -70.97,23.84 -85.89,6.36 -73.19,-85.73 -90.03,-171.48 -133.18,-340.79 -39.42,-154.78 -121.18,-618.07 46.83,-638.97 158.49,-19.84 42.6,-240.51 202.14,-232.3 -9.52,-40.22 8.2,-83.34 37.04,-112.98 28.57,-29.9 66.67,-48.42 105.04,-64.29 189.18,-77.26 157.69,-143.67 357.19,-98.69 19.84,-27.78 274.3,-100.21 310.29,-90.94 2.65,0.53 -55.49,113.44 86.59,90.94 -5.29,32.54 72.16,-38.03 79.38,79.38 151.54,-90.94 233.1,126.73 238.13,158.75 6.61,39.95 -53.71,19.58 -13.49,25.66 23.81,3.7 64.56,52.12 60.59,76.2 17.2,-23.28 34.4,-46.3 51.86,-69.59 3.18,0.26 6.08,0.79 9.26,1.32 80.43,15.35 -11.78,278.29 -8.47,196.32 6.08,-150.55 112.71,-62.44 32.54,-44.71l-0.02 -0.01z"/>
  <path class="fil5" d="M15719.76 2291.31c-28.42,233.56 -59.47,466.79 -93.14,699.65 -13.68,94.58 -28.14,190.35 -66.19,278.01 -25.97,59.83 -62.35,114.47 -98.53,168.75 -42.75,64.14 -86.21,129.09 -144.27,179.79 -58.06,50.7 -133.48,86.3 -210.33,80.34 203.9,-137.25 340.94,-369.4 362.59,-614.24 10.18,-115.09 -3.79,-230.77 -6.47,-346.28 -2.68,-115.51 6.99,-235.03 60.28,-337.54 53.29,-102.51 158.56,-184.57 274.06,-181.66l-78.01 73.18 0.01 0z"/>
  <path class="fil2" d="M13987.21 6356.41l833.68 -1196.98 87.63 -99.11c0,0 475.45,-702.21 626.77,-747.23 64.09,-19.07 132.69,-16.25 195.02,8.13 100.67,39.28 166.2,124.59 185.89,220.12 16.45,79.83 0.83,166.66 -52.8,239.31l-773.23 1047.32 -328.96 445.51 -409.06 554.2 -72.46 -93.42 -245.16 -316.65 -47.31 -61.19 0 0 0 0 -0.01 -0.01z"/>
  <path class="fil6" d="M16070.04 5761.13l-1059.48 324.5c177.38,49.97 251.65,1130.82 86.57,1164.39 0,0 1755.9,124.89 1660.09,0 -116.8,-152.24 39.84,-1163.95 114.53,-1164.39l-801.71 -324.5z"/>
  <path class="fil5" d="M17479.83 11269.07l-92.6 -1117.6c0,-399.79 -25.93,-760.94 -67.47,-1082.94 -166.42,-1292.49 -583.67,-1955.01 -583.67,-1955.01l-1561.04 0.01c-2.12,2.38 -4.23,4.23 -6.35,6.61l-0.26 0.26c-368.3,387.09 -559.86,1360.49 -645.05,1948.13 -40.48,279.66 -56.89,472.02 -56.89,472.02l-152.67 1356.78 110.33 371.74 908.31 0 -14.29 -79.64 584.47 -2120.9 7.14 -25.93 6.35 25.93 541.87 2200.54 1021.82 0 0 0z"/>
  <path class="fil2" d="M15207.04 5116.42l329.86 -665.88 88.49 -154.01 325.55 -90.68 88.67 -449.95 -12.54 -5.41 12.54 -12.78 615.12 0 57.27 229.06 343.59 190.88 121.53 954.42 -432.98 2070.76c-515.39,-419.94 -1577.66,-536.25 -1577.66,-536.25l-172.12 -500.88 -113.77 -603.38 -13.74 -72.15 340.18 -353.75 0.01 0z"/>
  <path class="fil6" d="M15167.46 6320.96l0 0c-213.53,-6.06 -383.5,-121.12 -379.65,-257.01 3.86,-135.88 180.08,-241.13 393.61,-235.07 93.47,2.65 178.59,26.19 244.44,63.23l904.47 37.02 -26.41 424.07 -888.82 -81.51c-67.84,33.24 -154.16,51.91 -247.63,49.26l-0.01 0.01 0 0z"/>
  <path class="fil2" d="M16324.14 4873.5l853.18 847.04 -1486.11 152.18 -345.36 485.78 2071.38 68.68c186.89,66.56 385.96,-62.6 401.34,-260.39l0 0c5.19,-66.79 -420.35,-1761.39 -677.97,-1918.71 -301.94,-184.39 -816.46,625.41 -816.46,625.41l168.52 -280.55 -168.52 280.55 0 0.01z"/>
  <circle class="fil6" transform="matrix(0.0161225 -0.99987 0.99987 0.0161225 16200.2 2965.34)" r="696.72"/>
  <path class="fil5" d="M17729.56 5136.16c-17.46,66.15 -153.46,100.28 -185.21,185.21 -101.07,57.68 -46.3,-413.54 -87.05,-444.5 -31.49,-23.55 -39.95,33.34 -47.1,-15.61 -26.99,-183.62 -203.46,-142.61 -334.17,-172.24 -14.82,-28.84 -26.19,-56.88 -33.6,-84.14 -13.23,-49.21 -73.55,-66.41 -109.27,-30.16 -16.14,-14.29 -27.78,-64.82 -39.16,-115.36 -8.2,-36.78 -16.4,-73.55 -25.93,-96.84l-91.02 -205.32 29.37 152.93c-59.53,-21.43 -119.59,0.79 -154.25,-72.76 -44.45,-94.46 -62.18,-205.05 -29.9,-304.27 29.37,-89.96 78.85,-270.14 134.67,-419.36 -63.24,45.77 -139.17,79.11 -227.28,95.78 31.22,-59.27 62.97,-119.59 76.2,-185.47 12.96,-65.88 5.03,-139.17 -36.78,-191.56 -34.4,-43.13 -85.2,-32.28 -128.06,-66.94 -33.34,-26.99 -62.18,-96.04 -82.29,-133.88 85.72,284.96 150.55,587.64 41.54,859.63 -75.41,188.38 -234.16,341.58 -424.66,411.16 101.33,-72.5 200.29,-149.75 276.23,-248.18 81.23,-105.57 134.14,-238.92 118,-371.21 -25.4,-207.7 -410.63,-864.66 -457.99,-993.78 25.93,126.21 15.88,224.63 -52.39,278.87 -17.73,-183.09 -217.22,-166.42 -325.97,-239.71 0,0 -84.14,-475.46 113.24,-478.37 95.25,-1.32 195,-225.16 281.52,-265.11 138.11,-63.76 222.78,-20.37 375.97,-15.61 152.93,4.5 299.77,70.38 393.17,191.29 48.95,63.24 66.94,12.96 140.49,52.39 69.85,37.31 116.95,2.65 196.06,5.03 158.49,4.23 312.21,88.9 401.11,219.87 88.9,131.23 143.67,119.06 108.48,322 -0.53,2.38 -0.53,7.14 0,14.29 19.32,319.62 -30.16,640.03 -156.9,934.24 -39.16,90.49 152.38,183.88 152.12,296.86 -0.26,131.23 -211.65,250.83 -192.07,306.92 56.09,270.14 371.21,210.08 296.86,662.25 -6.08,36.78 97.63,117.47 85.99,161.66l0.03 0z"/>
  <path class="fil3" d="M15799.36 4308.83c5.82,-1.85 11.64,-3.97 17.46,-6.35 -7.41,5.29 -14.55,10.32 -21.96,15.61l4.5 -9.26z"/>
  <path class="fil7" d="M16780.75 2079.71c-75.79,11.26 -152.78,-114.48 -109.75,-288.86 93.78,143.39 141.71,304.82 149.25,482.13l-50.54 15.66 11.04 -208.93z"/>
  <path class="fil7" d="M17167.98 1916.94c-51.72,183.27 -314.37,305.92 -360.77,242.14l-5.31 109.29 -32.47 -41.77c94.2,-140.08 222.6,-247.54 398.54,-309.66l0.01 0z"/>
  <path class="fil1" d="M12505.83 6266.72l217.75 -103.15c-89.31,124.64 -166.27,319.3 -207.47,474.2 -69.76,-144.29 -182.21,-320.84 -293.52,-426.3l230.14 59.21c-141.81,-695.01 -675.19,-1193.95 -1285.99,-1193.95l0 -52.92c637.99,0 1194.3,519.84 1339.09,1242.91z"/>
  <circle class="fil1" transform="matrix(0.160182 -0.987087 0.987087 0.160182 10905.9 5044.4)" r="414.27"/>
  <circle class="fil1" cx="7256.96" cy="1790.03" r="255.52"/>
  <circle class="fil1" cx="12629.45" cy="7972.9" r="255.52"/>
  <path class="fil1" d="M13791.99 6897.78l-2916.8 0c-123.72,0 -224.36,-51.03 -224.36,-113.75 0,-62.72 100.66,-113.75 224.36,-113.75l2916.8 -0.02c123.72,0 224.36,51.04 224.36,113.76 0,62.72 -100.66,113.75 -224.36,113.75l0 0.01z"/>
  <path class="fil6" d="M13673.31 7202.69l0 0c-165.91,134.56 -369.82,158.06 -455.45,52.48 -85.63,-105.58 -20.55,-300.25 145.35,-434.81 72.62,-58.9 152.53,-96.52 226.61,-111.35l710.15 -561.35 256.33 338.86 -727.27 517.42c-29.8,69.42 -83.1,139.84 -155.72,198.75l0 0 0 0z"/>
  <path class="fil1" d="M13012.43 7638.3l-1476.65 0c-62.63,0 -113.58,-51.03 -113.58,-113.75 0,-62.72 50.96,-113.75 113.58,-113.75l1476.65 -0.02c62.63,0 113.58,51.04 113.58,113.76 0,62.72 -50.96,113.75 -113.58,113.75l0 0.01z"/>
  <path class="fil1" d="M9622.28 2679.94c0,60.34 -80.63,109.43 -179.71,109.43l-2336.31 0c-99.11,0 -179.71,-49.1 -179.71,-109.43 0,-60.34 80.63,-109.43 179.71,-109.43l2336.31 0c99.11,0 179.71,49.09 179.71,109.43z"/>
  <path class="fil1" d="M9048.7 2303.53c0,60.34 -65.28,109.43 -145.49,109.43l-1891.4 0c-80.24,0 -145.49,-49.1 -145.49,-109.43 0,-60.34 65.28,-109.43 145.49,-109.43l1891.4 0c80.24,0 145.49,49.09 145.49,109.43z"/>
 </g>
</svg>
